<!-- high-heeled-shoe — Fluent Emoji (Microsoft), MIT. Altered at the client's request — see theme/make-category-icons.js. Cropped to its own ink so the strip can stand them on one line. Generated by theme/make-category-icons.js; do not hand-edit. -->
<svg xmlns="http://www.w3.org/2000/svg" width="29.09" height="27.15" viewBox="1.58 1.35 29.09 27.15"><path fill-rule="evenodd" fill="#A08119" d="M10 19.98c0-2.15-1.35-3.57-4-3.57l-.92.03l-.07.007V28.5H3V10.01C3 7.37 4.64 5.12 6.95 4.2c1.21-.48 2.59-.07 3.42.93c3.1 3.75 11.66 14.1 13.86 16.28c3.7 3.7 4.56 4.94 4.56 4.94c.72.94.59 2.11-.42 2.11l-15.62-.05c-1.52 0-2.75-1.23-2.75-2.75zM13.11 11.74L19.49 19.26Q20.2 20.1 19.1 20.1L13.5 20.1Q12.4 20.1 12.4 19L12.4 12Q12.4 10.9 13.11 11.74z"/></svg>
